# Blender v3.0.1 OBJ File: 'bl_stage1.blend'
# www.blender.org
mtllib stage1.mtl
o Cube_Cube.002
v -30.000000 -1.000000 30.000000
v -30.000000 1.000000 30.000000
v -30.000000 -1.000000 -50.000000
v -30.000000 1.000000 -50.000000
v 30.000000 -1.000000 30.000000
v 30.000000 1.000000 30.000000
v 30.000000 -1.000000 -50.000000
v 30.000000 1.000000 -50.000000
v -19.414730 -1.000000 -37.057644
v -19.414730 1.000000 -37.057644
v -20.000000 -1.000000 -37.000000
v -20.000000 1.000000 -37.000000
v -22.771641 -1.000000 -41.148048
v -22.494410 -1.000000 -41.666710
v -22.121323 -1.000000 -42.121319
v -21.148050 -1.000000 -42.771641
v -21.666712 -1.000000 -42.494408
v -20.585272 -1.000000 -37.057644
v -20.585272 1.000000 -37.057644
v -19.414730 -1.000000 -42.942356
v -20.000000 -1.000000 -43.000000
v -20.585272 -1.000000 -42.942356
v -18.333290 -1.000000 -42.494408
v -17.878681 -1.000000 -37.878681
v -18.333290 -1.000000 -37.505592
v -17.878681 -1.000000 -42.121319
v -17.228361 -1.000000 -38.851952
v -17.228361 -1.000000 -41.148048
v -17.000000 -1.000000 -40.000000
v -17.057644 -1.000000 -39.414730
v -17.057644 -1.000000 -40.585270
v -21.148050 -1.000000 -37.228359
v -21.148050 1.000000 -37.228359
v -17.505590 -1.000000 -38.333290
v -17.505590 -1.000000 -41.666710
v -18.851952 -1.000000 -42.771641
v -18.851952 -1.000000 -37.228359
v -21.666712 -1.000000 -37.505592
v -21.666712 1.000000 -37.505592
v -23.000002 -1.000000 -40.000000
v -22.771641 -1.000000 -38.851952
v -22.942356 -1.000000 -39.414726
v -22.121321 -1.000000 -37.878681
v -22.121321 1.000000 -37.878681
v -22.942356 -1.000000 -40.585274
v -22.494408 -1.000000 -38.333290
v -22.494408 1.000000 -38.333290
v -22.771641 1.000000 -38.851952
v -22.942356 1.000000 -39.414726
v -23.000002 1.000000 -40.000000
v -22.942356 1.000000 -40.585274
v -22.771641 1.000000 -41.148048
v -22.494410 1.000000 -41.666710
v -22.121323 1.000000 -42.121319
v -20.585272 1.000000 -42.942356
v -21.148050 1.000000 -42.771641
v -21.666712 1.000000 -42.494408
v -19.414730 1.000000 -42.942356
v -18.333290 1.000000 -37.505592
v -18.333290 1.000000 -42.494408
v -18.851952 1.000000 -37.228359
v -18.851952 1.000000 -42.771641
v -17.505590 1.000000 -38.333290
v -17.505590 1.000000 -41.666710
v -17.000000 1.000000 -40.000000
v -17.057644 1.000000 -40.585270
v -17.057644 1.000000 -39.414730
v -17.228361 1.000000 -41.148048
v -17.228361 1.000000 -38.851952
v -17.878681 1.000000 -42.121319
v -17.878681 1.000000 -37.878681
v -20.000000 1.000000 -43.000000
vt 0.375000 0.000000
vt 0.625000 0.000000
vt 0.625000 0.250000
vt 0.375000 0.250000
vt 0.625000 0.500000
vt 0.375000 0.500000
vt 0.625000 0.750000
vt 0.375000 0.750000
vt 0.625000 1.000000
vt 0.375000 1.000000
vt 0.125000 0.500000
vt 0.178926 0.529421
vt 0.178215 0.527662
vt 0.177060 0.526042
vt 0.175506 0.524621
vt 0.173611 0.523455
vt 0.171450 0.522589
vt 0.169105 0.522055
vt 0.166667 0.521875
vt 0.164228 0.522055
vt 0.161883 0.522589
vt 0.159722 0.523455
vt 0.157828 0.524621
vt 0.156273 0.526042
vt 0.125000 0.750000
vt 0.155118 0.527662
vt 0.154407 0.529421
vt 0.154167 0.531250
vt 0.154407 0.533079
vt 0.155118 0.534838
vt 0.156273 0.536458
vt 0.157828 0.537879
vt 0.159722 0.539045
vt 0.161883 0.539911
vt 0.164228 0.540445
vt 0.166667 0.540625
vt 0.169105 0.540445
vt 0.171450 0.539911
vt 0.173611 0.539045
vt 0.175506 0.537879
vt 0.177060 0.536458
vt 0.178215 0.534838
vt 0.178926 0.533079
vt 0.179167 0.531250
vt 0.843727 0.526042
vt 0.875000 0.500000
vt 0.875000 0.750000
vt 0.821074 0.529421
vt 0.820833 0.531250
vt 0.821074 0.533079
vt 0.821785 0.534838
vt 0.822940 0.536458
vt 0.824494 0.537879
vt 0.826389 0.539045
vt 0.828550 0.539911
vt 0.830895 0.540445
vt 0.833333 0.540625
vt 0.835772 0.540445
vt 0.838117 0.539911
vt 0.840278 0.539045
vt 0.842172 0.537879
vt 0.843727 0.536458
vt 0.844882 0.534838
vt 0.845593 0.533079
vt 0.845833 0.531250
vt 0.845593 0.529421
vt 0.844882 0.527662
vt 0.842172 0.524621
vt 0.840278 0.523455
vt 0.838117 0.522589
vt 0.835772 0.522055
vt 0.833333 0.521875
vt 0.830895 0.522055
vt 0.828550 0.522589
vt 0.826389 0.523455
vt 0.824495 0.524621
vt 0.822940 0.526042
vt 0.821785 0.527662
vt 1.000000 0.775000
vt 1.000000 0.725000
vt 0.968750 0.725000
vt 0.968750 0.775000
vt 0.937500 0.725000
vt 0.937500 0.775000
vt 0.906250 0.725000
vt 0.906250 0.775000
vt 0.875000 0.725000
vt 0.875000 0.775000
vt 0.843750 0.725000
vt 0.843750 0.775000
vt 0.812500 0.725000
vt 0.812500 0.775000
vt 0.781250 0.725000
vt 0.781250 0.775000
vt 0.750000 0.725000
vt 0.750000 0.775000
vt 0.718750 0.725000
vt 0.718750 0.775000
vt 0.687500 0.725000
vt 0.687500 0.775000
vt 0.656250 0.725000
vt 0.656250 0.775000
vt 0.625000 0.725000
vt 0.625000 0.775000
vt 0.593750 0.725000
vt 0.593750 0.775000
vt 0.562500 0.725000
vt 0.562500 0.775000
vt 0.531250 0.725000
vt 0.531250 0.775000
vt 0.500000 0.725000
vt 0.500000 0.775000
vt 0.468750 0.775000
vt 0.468750 0.725000
vt 0.437500 0.725000
vt 0.437500 0.775000
vt 0.406250 0.725000
vt 0.406250 0.775000
vt 0.375000 0.725000
vt 0.375000 0.775000
vt 0.343750 0.725000
vt 0.343750 0.775000
vt 0.312500 0.725000
vt 0.312500 0.775000
vt 0.281250 0.725000
vt 0.281250 0.775000
vt 0.250000 0.725000
vt 0.250000 0.775000
vt 0.218750 0.725000
vt 0.218750 0.775000
vt 0.187500 0.725000
vt 0.187500 0.775000
vt 0.156250 0.725000
vt 0.156250 0.775000
vt 0.125000 0.725000
vt 0.125000 0.775000
vt 0.093750 0.725000
vt 0.093750 0.775000
vt 0.062500 0.725000
vt 0.062500 0.775000
vt 0.031250 0.725000
vt 0.031250 0.775000
vt 0.000000 0.725000
vt 0.000000 0.775000
vn -1.0000 0.0000 0.0000
vn 0.0000 0.0000 -1.0000
vn 1.0000 0.0000 0.0000
vn 0.0000 0.0000 1.0000
vn 0.0000 -1.0000 -0.0000
vn 0.0000 1.0000 0.0000
vn -0.0980 0.0000 0.9952
vn -0.2903 0.0000 0.9569
vn -0.4714 0.0000 0.8819
vn -0.6344 0.0000 0.7730
vn -0.7730 0.0000 0.6344
vn -0.8819 0.0000 0.4714
vn -0.9569 0.0000 0.2903
vn -0.9952 0.0000 0.0980
vn -0.9952 0.0000 -0.0980
vn -0.9569 0.0000 -0.2903
vn -0.8819 0.0000 -0.4714
vn -0.7730 0.0000 -0.6344
vn -0.6344 0.0000 -0.7730
vn -0.4714 0.0000 -0.8819
vn -0.2903 0.0000 -0.9569
vn -0.0980 0.0000 -0.9952
vn 0.0980 0.0000 -0.9952
vn 0.2903 0.0000 -0.9569
vn 0.4714 0.0000 -0.8819
vn 0.6344 0.0000 -0.7730
vn 0.7730 0.0000 -0.6344
vn 0.8819 0.0000 -0.4714
vn 0.9569 0.0000 -0.2903
vn 0.9952 0.0000 -0.0980
vn 0.9952 0.0000 0.0980
vn 0.9569 0.0000 0.2903
vn 0.8819 0.0000 0.4714
vn 0.7730 0.0000 0.6344
vn 0.6344 0.0000 0.7730
vn 0.4714 0.0000 0.8819
vn 0.2903 0.0000 0.9569
vn 0.0980 0.0000 0.9952
usemtl None
s off
f 1/1/1 2/2/1 4/3/1 3/4/1
f 3/4/2 4/3/2 8/5/2 7/6/2
f 7/6/3 8/5/3 6/7/3 5/8/3
f 5/8/4 6/7/4 2/9/4 1/10/4
f 3/11/5 7/6/5 31/12/5 28/13/5 35/14/5 26/15/5 23/16/5 36/17/5 20/18/5 21/19/5 22/20/5 16/21/5 17/22/5 15/23/5 14/24/5
f 31/12/5 7/6/5 5/8/5 1/25/5 3/11/5 14/24/5 13/26/5 45/27/5 40/28/5 42/29/5 41/30/5 46/31/5 43/32/5 38/33/5 32/34/5 18/35/5 11/36/5 9/37/5 37/38/5 25/39/5 24/40/5 34/41/5 27/42/5 30/43/5 29/44/5
f 53/45/6 4/46/6 2/47/6 6/7/6 8/5/6 66/48/6 65/49/6 67/50/6 69/51/6 63/52/6 71/53/6 59/54/6 61/55/6 10/56/6 12/57/6 19/58/6 33/59/6 39/60/6 44/61/6 47/62/6 48/63/6 49/64/6 50/65/6 51/66/6 52/67/6
f 66/48/6 8/5/6 4/46/6 53/45/6 54/68/6 57/69/6 56/70/6 55/71/6 72/72/6 58/73/6 62/74/6 60/75/6 70/76/6 64/77/6 68/78/6
f 72/79/7 21/80/7 20/81/7 58/82/7
f 58/82/8 20/81/8 36/83/8 62/84/8
f 62/84/9 36/83/9 23/85/9 60/86/9
f 60/86/10 23/85/10 26/87/10 70/88/10
f 70/88/11 26/87/11 35/89/11 64/90/11
f 35/89/12 28/91/12 68/92/12 64/90/12
f 28/91/13 31/93/13 66/94/13 68/92/13
f 31/93/14 29/95/14 65/96/14 66/94/14
f 29/95/15 30/97/15 67/98/15 65/96/15
f 30/97/16 27/99/16 69/100/16 67/98/16
f 27/99/17 34/101/17 63/102/17 69/100/17
f 34/101/18 24/103/18 71/104/18 63/102/18
f 24/103/19 25/105/19 59/106/19 71/104/19
f 25/105/20 37/107/20 61/108/20 59/106/20
f 37/107/21 9/109/21 10/110/21 61/108/21
f 9/109/22 11/111/22 12/112/22 10/110/22
f 19/113/23 12/112/23 11/111/23 18/114/23
f 19/113/24 18/114/24 32/115/24 33/116/24
f 33/116/25 32/115/25 38/117/25 39/118/25
f 39/118/26 38/117/26 43/119/26 44/120/26
f 44/120/27 43/119/27 46/121/27 47/122/27
f 47/122/28 46/121/28 41/123/28 48/124/28
f 48/124/29 41/123/29 42/125/29 49/126/29
f 49/126/30 42/125/30 40/127/30 50/128/30
f 50/128/31 40/127/31 45/129/31 51/130/31
f 51/130/32 45/129/32 13/131/32 52/132/32
f 52/132/33 13/131/33 14/133/33 53/134/33
f 53/134/34 14/133/34 15/135/34 54/136/34
f 54/136/35 15/135/35 17/137/35 57/138/35
f 57/138/36 17/137/36 16/139/36 56/140/36
f 56/140/37 16/139/37 22/141/37 55/142/37
f 55/142/38 22/141/38 21/143/38 72/144/38
